<?xml version="1.0" standalone="no"?>
<!DOCTYPE svg PUBLIC "-//W3C//DTD SVG 20010904//EN"
 "http://www.w3.org/TR/2001/REC-SVG-20010904/DTD/svg10.dtd">
<svg version="1.0" xmlns="http://www.w3.org/2000/svg"
 width="330.000000pt" height="330.000000pt" viewBox="0 0 330.000000 330.000000"
 preserveAspectRatio="xMidYMid meet">
<metadata>
Created by potrace 1.14, written by Peter Selinger 2001-2017
</metadata>
<g transform="translate(0.000000,330.000000) scale(0.100000,-0.100000)"
fill="#000000" stroke="none">
<path d="M1558 3067 c-48 -122 -90 -230 -94 -239 -5 -16 1 -18 60 -18 46 0 66
-4 67 -12 1 -17 1 -608 0 -630 -1 -9 -9 -17 -18 -16 -10 0 -29 -3 -43 -7 -14
-3 -29 -7 -35 -9 -24 -6 -108 -47 -135 -66 l-29 -21 -225 226 c-124 124 -226
228 -226 232 0 4 20 28 45 53 l46 47 -68 28 c-37 16 -95 41 -128 56 -118 54
-278 120 -282 116 -3 -4 118 -292 180 -426 l23 -51 44 45 c24 25 48 45 52 45
5 0 109 -101 233 -225 l224 -224 -35 -58 c-19 -32 -42 -83 -50 -113 -29 -104
10 -93 -330 -92 -164 0 -309 1 -321 1 -21 1 -23 5 -23 66 0 36 -2 65 -4 65 -8
0 -436 -169 -458 -181 -21 -11 -20 -12 13 -26 19 -8 57 -23 84 -33 28 -10 120
-46 204 -79 85 -34 157 -61 160 -61 4 0 4 29 3 65 -3 57 -2 65 15 66 10 0 155
1 322 2 345 2 304 14 335 -93 8 -31 31 -81 50 -113 l35 -57 -225 -225 c-124
-124 -229 -225 -234 -225 -5 0 -27 19 -49 42 -26 28 -44 39 -50 33 -5 -6 -28
-55 -51 -110 -46 -109 -72 -168 -100 -230 -32 -69 -50 -118 -46 -122 2 -2 110
43 240 99 l236 102 -45 46 c-25 25 -45 49 -45 53 0 4 102 109 226 232 l225
225 27 -18 c48 -34 108 -61 173 -77 l64 -16 -2 -297 c0 -163 -2 -309 -2 -324
-1 -26 -2 -27 -61 -26 -33 1 -62 -1 -65 -4 -6 -6 177 -478 185 -478 7 0 182
447 184 468 1 14 -10 16 -61 15 -53 -1 -63 1 -64 15 0 9 -1 156 -1 326 l1 310
23 3 c55 8 127 35 181 67 l57 35 229 -228 229 -228 -49 -49 -49 -49 147 -64
c82 -36 171 -74 198 -87 89 -39 128 -54 132 -50 3 3 -143 347 -191 448 l-12
28 -44 -45 c-24 -25 -48 -45 -52 -45 -4 0 -108 101 -232 225 l-225 225 29 47
c32 52 70 150 70 182 0 11 5 23 12 27 9 6 567 10 634 5 7 -1 12 -24 12 -61 0
-34 2 -63 5 -66 4 -4 109 34 192 70 17 7 87 35 157 62 71 27 128 51 128 54 0
8 -472 191 -478 185 -3 -2 -4 -32 -3 -65 l2 -60 -33 -1 c-132 -3 -610 1 -618
6 -6 3 -10 13 -10 22 0 34 -33 124 -65 177 l-34 56 225 225 c123 124 227 225
231 225 4 0 28 -21 54 -46 l46 -45 13 33 c12 30 37 89 75 173 59 132 115 268
111 272 -2 2 -28 -6 -58 -19 -29 -14 -135 -60 -236 -103 l-183 -79 49 -49 50
-49 -230 -229 -229 -229 -29 20 c-59 42 -164 82 -212 82 -15 -1 -18 8 -19 46
-1 54 0 581 0 599 1 9 20 12 62 12 33 -1 62 1 65 3 5 6 -179 478 -186 478 -3
0 -44 -100 -92 -223z"/>
</g>
</svg>
