<?xml version="1.0" standalone="no"?>
<!DOCTYPE svg PUBLIC "-//W3C//DTD SVG 20010904//EN"
 "http://www.w3.org/TR/2001/REC-SVG-20010904/DTD/svg10.dtd">
<svg version="1.0" xmlns="http://www.w3.org/2000/svg"
 width="300.000000pt" height="300.000000pt" viewBox="0 0 300.000000 300.000000"
 preserveAspectRatio="xMidYMid meet">
<metadata>
Created by potrace 1.10, written by Peter Selinger 2001-2011
</metadata>
<g transform="translate(0.000000,300.000000) scale(0.100000,-0.100000)"
fill="#000000" stroke="none">
<path d="M1443 2858 c-28 -73 -67 -173 -86 -221 l-36 -88 62 2 62 3 3 -295 2
-294 -70 -19 c-39 -10 -93 -33 -119 -51 l-49 -32 -209 208 -209 209 43 42 c24
23 40 45 35 49 -4 3 -63 30 -132 59 -69 30 -163 71 -209 92 -46 21 -86 37 -88
35 -2 -2 14 -42 35 -88 21 -46 62 -140 92 -209 29 -69 56 -128 59 -132 4 -5
26 11 49 35 l42 43 209 -209 208 -209 -32 -49 c-18 -26 -41 -80 -51 -119 l-18
-70 -293 0 -293 0 0 64 0 65 -42 -18 c-24 -10 -123 -49 -220 -87 -98 -38 -178
-71 -178 -74 0 -3 35 -19 78 -35 42 -16 141 -55 220 -86 l142 -57 0 64 0 64
293 0 293 0 18 -70 c10 -39 33 -93 51 -119 l32 -49 -208 -209 -209 -209 -42
43 c-23 24 -45 40 -49 35 -3 -4 -30 -63 -59 -132 -30 -69 -71 -163 -92 -209
-21 -46 -37 -86 -35 -88 2 -2 42 14 88 36 46 21 140 62 209 91 69 29 128 56
132 59 5 4 -11 26 -35 49 l-43 42 209 209 209 209 51 -34 c28 -18 81 -41 119
-51 l68 -17 0 -293 0 -293 -64 0 -65 0 18 -42 c10 -24 49 -123 87 -220 38 -98
71 -178 74 -178 3 0 36 80 74 178 38 97 77 196 87 220 l18 42 -65 0 -64 0 0
293 0 293 68 17 c38 10 91 33 119 51 l51 34 209 -209 209 -209 -43 -42 c-24
-23 -40 -45 -35 -49 4 -3 63 -30 132 -59 69 -30 163 -71 209 -92 46 -21 86
-37 88 -35 2 2 -14 42 -35 88 -21 46 -62 140 -92 209 -29 69 -56 128 -59 132
-4 5 -26 -11 -49 -35 l-42 -43 -209 209 -208 210 28 43 c32 46 52 97 63 157
l7 37 294 0 295 0 0 -64 0 -64 143 57 c78 31 177 70 220 86 42 16 77 32 77 35
0 3 -80 36 -178 74 -97 38 -196 77 -219 87 l-43 18 0 -65 0 -64 -295 0 -294 0
-7 38 c-11 60 -32 110 -64 159 -17 25 -29 46 -28 47 2 0 97 93 211 206 l207
204 44 -43 45 -44 14 34 c8 19 43 99 77 179 34 79 71 162 82 183 11 22 18 41
16 43 -4 3 -423 -178 -433 -187 -2 -3 15 -24 38 -47 l43 -42 -209 -209 -209
-208 -49 32 c-26 18 -80 41 -119 51 l-70 18 0 296 0 296 65 -4 65 -4 -19 43
c-10 24 -49 124 -87 221 -38 98 -71 178 -74 178 -3 0 -28 -60 -57 -132z m120
-93 c31 -80 57 -151 57 -159 0 -8 -16 -16 -40 -20 -24 -4 -43 -14 -50 -25 -16
-30 -14 -592 3 -614 6 -9 39 -24 72 -32 33 -9 89 -32 124 -51 l64 -35 39 38
c160 155 385 387 392 403 7 16 3 27 -19 50 -18 18 -25 34 -19 39 5 5 52 27
104 49 52 22 121 52 153 66 31 14 57 24 57 22 0 -3 -26 -65 -59 -138 -32 -73
-62 -143 -65 -155 -9 -30 -27 -29 -56 2 -13 14 -31 25 -39 25 -18 0 -441 -419
-441 -437 0 -7 15 -41 34 -75 19 -35 39 -83 46 -108 6 -25 16 -55 22 -67 l11
-23 303 0 c231 0 305 3 311 13 4 6 10 31 13 54 l5 41 145 -57 c80 -32 154 -61
165 -65 16 -6 9 -12 -40 -30 -33 -13 -106 -41 -162 -63 -56 -22 -105 -38 -108
-35 -3 3 -5 18 -5 34 0 16 -5 38 -10 49 -10 18 -24 19 -309 19 -338 0 -319 5
-340 -85 -7 -27 -28 -78 -47 -112 -19 -34 -34 -67 -34 -75 0 -7 99 -112 219
-232 l220 -219 36 31 c19 18 39 32 43 32 7 0 145 -311 140 -316 -3 -3 -95 35
-186 77 -35 16 -65 29 -66 29 -2 0 -20 7 -40 15 l-37 16 30 35 c17 19 31 40
31 47 0 19 -423 437 -442 437 -9 0 -38 -13 -65 -30 -26 -16 -75 -36 -107 -45
-102 -26 -96 -5 -96 -340 0 -326 0 -324 68 -334 l41 -6 -62 -157 c-34 -87 -64
-158 -67 -158 -5 0 -60 134 -105 253 l-25 67 35 0 c22 0 43 8 55 20 19 19 20
33 20 313 0 337 6 316 -96 342 -32 9 -81 29 -107 45 -27 17 -56 30 -65 30 -17
0 -442 -417 -442 -434 0 -6 12 -27 26 -48 15 -21 25 -40 23 -41 -11 -8 -314
-134 -317 -132 -3 2 127 306 134 314 2 2 22 -11 44 -29 l42 -33 219 219 c120
120 219 224 219 231 0 7 -15 41 -34 75 -19 35 -40 86 -47 113 -21 90 -2 85
-340 85 -227 0 -300 -3 -306 -12 -4 -7 -10 -30 -13 -51 -3 -21 -7 -39 -11 -40
-8 -3 -309 116 -309 122 0 3 71 34 158 67 l157 62 5 -42 c3 -22 9 -47 13 -53
6 -10 80 -13 311 -13 l303 0 11 23 c6 12 16 42 22 67 7 25 27 73 46 108 19 34
34 68 34 74 0 17 -422 438 -438 438 -8 0 -27 -11 -44 -25 -16 -14 -33 -25 -36
-25 -6 0 -106 222 -139 307 -4 11 293 -111 311 -128 6 -5 -1 -20 -18 -38 -15
-16 -26 -36 -24 -45 2 -12 243 -261 396 -410 l40 -38 29 19 c36 26 155 73 182
73 12 0 30 9 41 20 19 19 20 33 20 313 0 223 -3 297 -13 311 -7 10 -32 20 -55
23 -26 3 -41 10 -39 17 3 6 31 77 63 159 32 81 60 147 63 147 3 0 32 -65 64
-145z"/>
</g>
</svg>
